<?xml version="1.0" encoding="UTF-8" standalone="no"?>
<!DOCTYPE svg PUBLIC "-//W3C//DTD SVG 1.1//EN" "http://www.w3.org/Graphics/SVG/1.1/DTD/svg11.dtd">
<svg width="100%" height="100%" viewBox="0 0 1027 1116" version="1.1" xmlns="http://www.w3.org/2000/svg" xmlns:xlink="http://www.w3.org/1999/xlink" xml:space="preserve" xmlns:serif="http://www.serif.com/" style="fill-rule:evenodd;clip-rule:evenodd;stroke-linecap:round;stroke-linejoin:round;stroke-miterlimit:1.5;">
    <g transform="matrix(1,0,0,1,-5995.67,-2329.79)">
        <g transform="matrix(1,0,0,1,1273.17,132.011)">
            <g>
                <g>
                    <g transform="matrix(1.2661,0,0,1.83942,-1200.31,-1929.24)">
                        <path d="M5487.94,2306.88C5487.94,2298.87 5478.49,2292.36 5466.86,2292.36L4700.25,2292.36C4688.61,2292.36 4679.16,2298.87 4679.16,2306.88L4679.16,2834.54C4679.16,2842.55 4688.61,2849.06 4700.25,2849.06L5466.86,2849.06C5478.49,2849.06 5487.94,2842.55 5487.94,2834.54L5487.94,2306.88Z" style="fill:rgb(203,223,250);stroke:rgb(2,13,85);stroke-width:1.9px;"/>
                    </g>
                    <g>
                        <g transform="matrix(1,0,0,1,-10,10)">
                            <g transform="matrix(0.316526,0,0,0.459856,3970.92,1273.23)">
                                <path d="M5487.94,2352.18C5487.94,2319.16 5449.01,2292.36 5401.04,2292.36L4766.07,2292.36C4718.1,2292.36 4679.16,2319.16 4679.16,2352.18L4679.16,2789.24C4679.16,2822.25 4718.1,2849.06 4766.07,2849.06L5401.04,2849.06C5449.01,2849.06 5487.94,2822.25 5487.94,2789.24L5487.94,2352.18Z" style="fill:rgb(2,13,85);"/>
                            </g>
                            <g transform="matrix(1,0,0,1,344,-344)">
                                <text x="5166.21px" y="2787.05px" style="font-family:'Bangers-Regular', 'Bangers';font-size:48px;fill:white;">desktop</text>
                                <text x="5186.25px" y="2847.05px" style="font-family:'Bangers-Regular', 'Bangers';font-size:48px;fill:white;">client</text>
                            </g>
                        </g>
                        <g>
                            <g transform="matrix(0.316526,0,0,0.459856,3626.92,1617.23)">
                                <path d="M5487.94,2352.18C5487.94,2319.16 5449.01,2292.36 5401.04,2292.36L4766.07,2292.36C4718.1,2292.36 4679.16,2319.16 4679.16,2352.18L4679.16,2789.24C4679.16,2822.25 4718.1,2849.06 4766.07,2849.06L5401.04,2849.06C5449.01,2849.06 5487.94,2822.25 5487.94,2789.24L5487.94,2352.18Z" style="fill:rgb(255,0,154);"/>
                            </g>
                            <g>
                                <text x="5182.58px" y="2757.05px" style="font-family:'Bangers-Regular', 'Bangers';font-size:48px;fill:rgb(2,13,85);">gitlab</text>
                                <text x="5179.58px" y="2817.05px" style="font-family:'Bangers-Regular', 'Bangers';font-size:48px;fill:rgb(2,13,85);">github</text>
                                <text x="5153.97px" y="2877.05px" style="font-family:'Bangers-Regular', 'Bangers';font-size:48px;fill:rgb(2,13,85);">bitbucket</text>
                            </g>
                        </g>
                        <g>
                            <g transform="matrix(0.177195,-0.177195,0.707107,0.707107,2549.28,1633.49)">
                                <path d="M5149.84,2669.62L5149.84,2700.61L4959.59,2652.93L5149.84,2605.26L5149.84,2636.24L5490.79,2636.24L5490.79,2669.62L5149.84,2669.62Z" style="fill:rgb(120,166,226);"/>
                            </g>
                            <g transform="matrix(-0.177195,0.177195,-0.707107,-0.707107,8264.64,3647.41)">
                                <path d="M5149.84,2669.62L5149.84,2700.61L4959.59,2652.93L5149.84,2605.26L5149.84,2636.24L5490.79,2636.24L5490.79,2669.62L5149.84,2669.62Z" style="fill:rgb(120,166,226);"/>
                            </g>
                        </g>
                    </g>
                    <g transform="matrix(0.5,0,0,0.5,2390.64,1144.21)">
                        <g transform="matrix(2,0,0,2,-4987.22,-3248.43)">
                            <text x="5108px" y="2749.59px" style="font-family:'Bangers-Regular', 'Bangers';font-size:96px;fill:rgb(255,0,154);">desktop</text>
                        </g>
                        <g transform="matrix(0.435025,0,0,0.435025,4636.23,1676.4)">
                            <g transform="matrix(262.917,0,0,262.917,298.104,1242.61)">
                                <path d="M0.243,-0.528C0.265,-0.528 0.286,-0.525 0.305,-0.521C0.325,-0.517 0.343,-0.511 0.36,-0.51L0.516,-0.51L0.516,-0.398L0.446,-0.398C0.451,-0.383 0.453,-0.375 0.453,-0.359C0.453,-0.333 0.448,-0.31 0.437,-0.289C0.426,-0.268 0.411,-0.251 0.392,-0.236C0.373,-0.222 0.351,-0.211 0.326,-0.203C0.3,-0.195 0.272,-0.191 0.243,-0.191C0.227,-0.191 0.211,-0.192 0.197,-0.194C0.186,-0.187 0.18,-0.18 0.18,-0.171C0.18,-0.162 0.185,-0.156 0.194,-0.152C0.203,-0.148 0.215,-0.146 0.23,-0.144C0.245,-0.143 0.262,-0.142 0.282,-0.141C0.301,-0.141 0.321,-0.14 0.341,-0.138C0.361,-0.136 0.38,-0.133 0.4,-0.129C0.419,-0.124 0.436,-0.117 0.451,-0.108C0.466,-0.098 0.478,-0.085 0.487,-0.069C0.496,-0.053 0.501,-0.032 0.501,-0.007C0.501,0.016 0.495,0.039 0.484,0.062C0.473,0.084 0.456,0.104 0.434,0.121C0.412,0.138 0.385,0.152 0.353,0.163C0.321,0.173 0.284,0.179 0.243,0.179C0.202,0.179 0.167,0.175 0.138,0.167C0.108,0.159 0.084,0.149 0.064,0.137C0.045,0.124 0.03,0.11 0.021,0.094C0.012,0.077 0.007,0.06 0.007,0.043C0.007,0.02 0.014,0 0.028,-0.016C0.042,-0.032 0.061,-0.044 0.086,-0.053C0.074,-0.061 0.065,-0.071 0.058,-0.083C0.05,-0.095 0.047,-0.11 0.047,-0.128C0.047,-0.136 0.048,-0.144 0.051,-0.152C0.054,-0.161 0.058,-0.169 0.064,-0.177C0.069,-0.185 0.076,-0.193 0.085,-0.2C0.094,-0.207 0.104,-0.214 0.116,-0.22C0.089,-0.234 0.068,-0.253 0.052,-0.277C0.037,-0.3 0.029,-0.328 0.029,-0.359C0.029,-0.385 0.035,-0.408 0.046,-0.429C0.056,-0.45 0.072,-0.468 0.091,-0.482C0.11,-0.497 0.133,-0.508 0.159,-0.516C0.185,-0.524 0.213,-0.528 0.243,-0.528ZM0.358,0.019C0.358,0.011 0.355,0.004 0.35,-0.001C0.345,-0.006 0.338,-0.01 0.329,-0.013C0.32,-0.016 0.31,-0.018 0.298,-0.02C0.286,-0.021 0.274,-0.022 0.26,-0.023C0.246,-0.023 0.232,-0.024 0.218,-0.024C0.203,-0.025 0.188,-0.026 0.174,-0.028C0.164,-0.021 0.156,-0.013 0.15,-0.005C0.144,0.003 0.141,0.012 0.141,0.023C0.141,0.03 0.143,0.037 0.146,0.043C0.149,0.049 0.155,0.054 0.163,0.058C0.171,0.062 0.181,0.066 0.195,0.068C0.208,0.071 0.225,0.072 0.246,0.072C0.268,0.072 0.287,0.071 0.301,0.068C0.315,0.065 0.327,0.062 0.335,0.057C0.344,0.052 0.35,0.047 0.353,0.04C0.356,0.034 0.358,0.027 0.358,0.019ZM0.243,-0.287C0.269,-0.287 0.276,-0.293 0.287,-0.306C0.299,-0.319 0.305,-0.335 0.305,-0.356C0.305,-0.377 0.299,-0.393 0.287,-0.405C0.276,-0.417 0.269,-0.423 0.243,-0.423C0.217,-0.423 0.214,-0.417 0.202,-0.405C0.191,-0.393 0.185,-0.377 0.185,-0.356C0.185,-0.345 0.187,-0.336 0.189,-0.328C0.192,-0.32 0.197,-0.312 0.203,-0.306C0.209,-0.3 0.221,-0.287 0.243,-0.287Z" style="fill:rgb(2,13,85);fill-rule:nonzero;"/>
                            </g>
                            <g transform="matrix(1,0,0,1,450.162,0)">
                                <g transform="matrix(262.917,0,0,262.917,423.463,1244.75)">
                                    <rect x="0.065" y="-0.519" width="0.155" height="0.519" style="fill:rgb(2,13,85);fill-rule:nonzero;"/>
                                </g>
                                <g transform="matrix(1,0,0,1,0.244913,-13.6526)">
                                    <path d="M490.831,1082.51L449.682,1082.51L440.553,1111.61L481.305,1111.61L490.831,1082.51Z" style="fill:rgb(2,13,85);"/>
                                </g>
                            </g>
                            <g transform="matrix(1,0,0,1,-0.838302,0)">
                                <g transform="matrix(262.917,0,0,262.917,423.463,1244.75)">
                                    <rect x="0.065" y="-0.519" width="0.155" height="0.519" style="fill:rgb(2,13,85);fill-rule:nonzero;"/>
                                </g>
                                <g transform="matrix(1,0,0,1,0.244913,-13.6526)">
                                    <path d="M490.831,1082.51L449.682,1082.51L440.553,1111.61L481.305,1111.61L490.831,1082.51Z" style="fill:rgb(2,13,85);"/>
                                </g>
                            </g>
                            <g transform="matrix(262.917,0,0,262.917,612.867,1244.75)">
                                <path d="M0.282,-0.527C0.316,-0.527 0.348,-0.521 0.376,-0.511C0.405,-0.5 0.429,-0.484 0.45,-0.464C0.47,-0.444 0.486,-0.419 0.498,-0.389C0.509,-0.36 0.516,-0.326 0.515,-0.289C0.514,-0.253 0.505,-0.232 0.505,-0.232L0.181,-0.232C0.186,-0.188 0.199,-0.168 0.221,-0.149C0.242,-0.129 0.269,-0.119 0.303,-0.119C0.387,-0.126 0.44,-0.17 0.44,-0.17L0.512,-0.081C0.496,-0.063 0.479,-0.048 0.46,-0.036C0.442,-0.025 0.423,-0.016 0.403,-0.009C0.384,-0.003 0.364,0.002 0.345,0.004C0.325,0.007 0.307,0.008 0.289,0.008C0.253,0.008 0.219,0.002 0.187,-0.01C0.155,-0.022 0.127,-0.039 0.103,-0.063C0.079,-0.086 0.061,-0.115 0.047,-0.15C0.033,-0.184 0.026,-0.225 0.026,-0.271C0.026,-0.305 0.032,-0.338 0.044,-0.369C0.056,-0.4 0.073,-0.427 0.095,-0.451C0.117,-0.474 0.144,-0.492 0.175,-0.506C0.207,-0.52 0.242,-0.527 0.282,-0.527ZM0.285,-0.42C0.255,-0.42 0.232,-0.411 0.216,-0.394C0.199,-0.377 0.188,-0.353 0.183,-0.322L0.376,-0.322C0.376,-0.334 0.374,-0.346 0.371,-0.358C0.368,-0.369 0.363,-0.38 0.356,-0.389C0.349,-0.398 0.339,-0.405 0.328,-0.411C0.316,-0.417 0.302,-0.42 0.285,-0.42Z" style="fill:rgb(2,13,85);fill-rule:nonzero;"/>
                            </g>
                            <g transform="matrix(262.917,0,0,262.917,745.377,1244.75)">
                                <path d="M0.388,0L0.374,-0.066C0.364,-0.055 0.353,-0.045 0.342,-0.036C0.33,-0.027 0.318,-0.019 0.305,-0.012C0.292,-0.006 0.277,-0.001 0.262,0.003C0.247,0.006 0.231,0.008 0.213,0.008C0.186,0.008 0.161,0.002 0.138,-0.01C0.115,-0.022 0.095,-0.039 0.079,-0.062C0.062,-0.085 0.049,-0.112 0.039,-0.145C0.03,-0.178 0.025,-0.216 0.025,-0.258C0.025,-0.296 0.03,-0.332 0.041,-0.365C0.052,-0.398 0.067,-0.427 0.086,-0.451C0.106,-0.475 0.129,-0.494 0.157,-0.508C0.184,-0.522 0.214,-0.529 0.247,-0.529C0.274,-0.529 0.296,-0.525 0.315,-0.517C0.333,-0.509 0.35,-0.499 0.365,-0.486L0.365,-0.668L0.52,-0.668L0.52,0L0.388,0ZM0.267,-0.111C0.278,-0.111 0.289,-0.112 0.298,-0.114C0.307,-0.116 0.315,-0.12 0.323,-0.124C0.331,-0.128 0.338,-0.133 0.345,-0.139C0.352,-0.145 0.358,-0.152 0.365,-0.16L0.365,-0.38C0.353,-0.393 0.34,-0.402 0.327,-0.407C0.313,-0.412 0.299,-0.415 0.284,-0.415C0.27,-0.415 0.257,-0.412 0.245,-0.406C0.233,-0.4 0.222,-0.391 0.213,-0.379C0.204,-0.366 0.198,-0.35 0.193,-0.33C0.188,-0.31 0.185,-0.286 0.185,-0.258C0.185,-0.23 0.187,-0.207 0.191,-0.189C0.195,-0.17 0.201,-0.155 0.208,-0.143C0.215,-0.132 0.224,-0.124 0.234,-0.119C0.244,-0.114 0.255,-0.111 0.267,-0.111Z" style="fill:rgb(2,13,85);fill-rule:nonzero;"/>
                            </g>
                            <g transform="matrix(262.917,0,0,262.917,917.494,1244.75)">
                                <path d="M0.242,0.008C0.217,0.008 0.196,0.004 0.177,-0.003C0.158,-0.01 0.142,-0.02 0.129,-0.033C0.116,-0.046 0.107,-0.062 0.1,-0.081C0.093,-0.1 0.09,-0.121 0.09,-0.144L0.09,-0.519L0.137,-0.668L0.245,-0.669L0.245,-0.518L0.414,-0.518L0.331,-0.412L0.245,-0.412L0.245,-0.154C0.245,-0.142 0.248,-0.132 0.254,-0.124C0.26,-0.116 0.268,-0.113 0.279,-0.113C0.285,-0.113 0.289,-0.113 0.293,-0.114C0.297,-0.115 0.3,-0.117 0.303,-0.118C0.306,-0.12 0.325,-0.135 0.325,-0.135L0.387,-0.037C0.367,-0.022 0.345,-0.011 0.32,-0.003C0.295,0.004 0.269,0.008 0.242,0.008Z" style="fill:rgb(2,13,85);fill-rule:nonzero;"/>
                            </g>
                            <g transform="matrix(262.917,0,0,262.917,466.494,1244.75)">
                                <path d="M0.242,0.008C0.217,0.008 0.196,0.004 0.177,-0.003C0.158,-0.01 0.142,-0.02 0.129,-0.033C0.116,-0.046 0.107,-0.062 0.1,-0.081C0.093,-0.1 0.09,-0.121 0.09,-0.144L0.09,-0.519L0.137,-0.668L0.245,-0.669L0.245,-0.518L0.414,-0.518L0.331,-0.412L0.245,-0.412L0.245,-0.154C0.245,-0.142 0.248,-0.132 0.254,-0.124C0.26,-0.116 0.268,-0.113 0.279,-0.113C0.285,-0.113 0.289,-0.113 0.293,-0.114C0.297,-0.115 0.3,-0.117 0.303,-0.118C0.306,-0.12 0.325,-0.135 0.325,-0.135L0.387,-0.037C0.367,-0.022 0.345,-0.011 0.32,-0.003C0.295,0.004 0.269,0.008 0.242,0.008Z" style="fill:rgb(2,13,85);fill-rule:nonzero;"/>
                            </g>
                            <g transform="matrix(262.917,0,0,262.917,997.866,1244.75)">
                                <path d="M0.291,-0.527C0.33,-0.527 0.366,-0.52 0.399,-0.508C0.431,-0.496 0.459,-0.478 0.482,-0.455C0.505,-0.432 0.523,-0.404 0.536,-0.371C0.549,-0.338 0.555,-0.302 0.555,-0.261C0.555,-0.219 0.549,-0.182 0.536,-0.149C0.523,-0.116 0.505,-0.087 0.482,-0.064C0.459,-0.041 0.431,-0.023 0.399,-0.011C0.366,0.002 0.33,0.008 0.291,0.008C0.251,0.008 0.215,0.002 0.183,-0.011C0.15,-0.023 0.122,-0.041 0.099,-0.064C0.075,-0.087 0.057,-0.116 0.044,-0.149C0.031,-0.182 0.025,-0.219 0.025,-0.261C0.025,-0.302 0.031,-0.338 0.044,-0.371C0.057,-0.404 0.075,-0.432 0.099,-0.455C0.122,-0.478 0.15,-0.496 0.183,-0.508C0.215,-0.52 0.251,-0.527 0.291,-0.527ZM0.291,-0.107C0.327,-0.107 0.353,-0.12 0.37,-0.145C0.387,-0.17 0.395,-0.208 0.395,-0.26C0.395,-0.311 0.387,-0.349 0.37,-0.374C0.353,-0.399 0.327,-0.412 0.291,-0.412C0.254,-0.412 0.228,-0.399 0.211,-0.374C0.194,-0.349 0.185,-0.311 0.185,-0.26C0.185,-0.208 0.194,-0.17 0.211,-0.145C0.228,-0.12 0.254,-0.107 0.291,-0.107Z" style="fill:rgb(2,13,85);fill-rule:nonzero;"/>
                            </g>
                            <g transform="matrix(262.917,0,0,262.917,1132.95,1244.75)">
                                <path d="M0.06,0L0.06,-0.519L0.152,-0.519C0.16,-0.519 0.166,-0.518 0.171,-0.517C0.176,-0.515 0.181,-0.513 0.184,-0.51C0.188,-0.507 0.19,-0.504 0.192,-0.499C0.194,-0.494 0.196,-0.489 0.197,-0.482L0.206,-0.434C0.225,-0.463 0.246,-0.486 0.27,-0.503C0.293,-0.52 0.319,-0.529 0.347,-0.529C0.371,-0.529 0.39,-0.523 0.404,-0.512L0.384,-0.398C0.383,-0.391 0.38,-0.386 0.376,-0.383C0.372,-0.38 0.367,-0.379 0.36,-0.379C0.354,-0.379 0.348,-0.379 0.34,-0.381C0.332,-0.382 0.323,-0.383 0.311,-0.383C0.27,-0.383 0.238,-0.361 0.215,-0.318L0.215,0L0.06,0Z" style="fill:rgb(2,13,85);fill-rule:nonzero;"/>
                            </g>
                        </g>
                    </g>
                </g>
            </g>
            <g transform="matrix(1,0,0,1,-334,-334)">
                <text x="5108px" y="2742.04px" style="font-family:'Bangers-Regular', 'Bangers';font-size:96px;fill:rgb(2,13,85);">company</text>
                <text x="5108px" y="2838.04px" style="font-family:'Bangers-Regular', 'Bangers';font-size:96px;fill:rgb(2,13,85);">vpn</text>
            </g>
        </g>
    </g>
</svg>
